<svg width="20" height="21" viewBox="0 0 20 21" fill="none" xmlns="http://www.w3.org/2000/svg">
<path d="M7.663 15.25H12.336M10 1.25V2.25M16.364 3.886L15.657 4.593M19 10.25H18M2 10.25H1M4.343 4.593L3.636 3.886M6.464 13.786C5.76487 13.0867 5.2888 12.1958 5.09598 11.2259C4.90316 10.256 5.00225 9.25076 5.38073 8.33721C5.75921 7.42366 6.40007 6.64284 7.22229 6.09349C8.0445 5.54414 9.01115 5.25093 10 5.25093C10.9889 5.25093 11.9555 5.54414 12.7777 6.09349C13.5999 6.64284 14.2408 7.42366 14.6193 8.33721C14.9977 9.25076 15.0968 10.256 14.904 11.2259C14.7112 12.1958 14.2351 13.0867 13.536 13.786L12.988 14.333C12.6747 14.6463 12.4262 15.0183 12.2567 15.4277C12.0872 15.8371 11.9999 16.2759 12 16.719V17.25C12 17.7804 11.7893 18.2891 11.4142 18.6642C11.0391 19.0393 10.5304 19.25 10 19.25C9.46957 19.25 8.96086 19.0393 8.58579 18.6642C8.21071 18.2891 8 17.7804 8 17.25V16.719C8 15.824 7.644 14.965 7.012 14.333L6.464 13.786Z" stroke="black" stroke-width="2" stroke-linecap="round" stroke-linejoin="round"/>
</svg>
